<?xml version="1.0" standalone="yes"?>
<svg xmlns="http://www.w3.org/2000/svg" width="267" height="396">
<path style="fill:#ffffff; stroke:none;" d="M0 0L0 137C23.5551 120.407 43.6086 94.3914 64 74C70.2738 67.7262 80.4584 52.7214 90 52.1883C95.411 51.8859 99.4945 56.5417 103 60.0038C111.048 67.9529 119.001 76.0011 127 84C160.499 117.499 194.523 150.525 228 184L254.999 211C258.588 214.608 264.245 219.272 263.501 225C262.76 230.706 256.786 235.212 253 239C242.82 249.184 232.177 258.823 222 269L137 354C123.781 367.219 110.233 385.617 94 395L94 396L267 396L267 174C258.77 176.877 258.77 167.123 267 170L267 0L96 0C98.8772 8.22955 89.1228 8.22958 92 0L0 0z"/>
<path style="fill:#faeaf4; stroke:none;" d="M92 0L93 1L92 0z"/>
<path style="fill:#f7e0f2; stroke:none;" d="M93.1744 0.970703C89.5393 1.9812 91.1719 7.30862 94.7014 6.24924C97.9244 5.28183 96.5599 0.029541 93.1744 0.970703z"/>
<path style="fill:#faeaf4; stroke:none;" d="M95 0L96 1L95 0M90 2L91 3L90 2z"/>
<path style="fill:#fdf3f3; stroke:none;" d="M97 2L98 3L97 2z"/>
<path style="fill:#faeaf4; stroke:none;" d="M97.3333 3.66666L97.6667 4.33334L97.3333 3.66666z"/>
<path style="fill:#fdf3f3; stroke:none;" d="M90 5L91 6L90 5M97 5L98 6L97 5z"/>
<path style="fill:#faeaf4; stroke:none;" d="M91 6L92 7L91 6M96 6L97 7L96 6z"/>
<path style="fill:#fdf3f3; stroke:none;" d="M92 7L93 8L92 7z"/>
<path style="fill:#faeaf4; stroke:none;" d="M93.6667 7.33334L94.3333 7.66666L93.6667 7.33334z"/>
<path style="fill:#fdf3f3; stroke:none;" d="M95 7L96 8L95 7M55.6667 37.3333L56.3333 37.6667L55.6667 37.3333M53 38L52 40L53 38z"/>
<path style="fill:#f7e0f2; stroke:none;" d="M54.5926 39.0826C51.7978 41.0068 54.5159 45.5724 57.5417 43.713C60.61 41.8273 57.4976 37.0824 54.5926 39.0826z"/>
<path style="fill:#faeaf4; stroke:none;" d="M58 38L59 39L58 38z"/>
<path style="fill:#fdf3f3; stroke:none;" d="M59 39L60 40L59 39z"/>
<path style="fill:#faeaf4; stroke:none;" d="M52 40L52 43L53 43L52 40M59 40L60 41L59 40M59 42L60 43L59 42M134 42L135 43L134 42z"/>
<path style="fill:#f7e0f2; stroke:none;" d="M135.279 43.2554C132.007 44.7821 134.222 49.7592 137.57 48.3387C140.779 46.9772 138.416 41.7913 135.279 43.2554z"/>
<path style="fill:#faeaf4; stroke:none;" d="M137 42L138 43L137 42z"/>
<path style="fill:#fdf3f3; stroke:none;" d="M138 42L139 43L138 42M59 43L60 44L59 43z"/>
<path style="fill:#f9e6ea; stroke:none;" d="M133 43L134 44L133 43z"/>
<path style="fill:#fdf3f3; stroke:none;" d="M139 43L140 44L139 43z"/>
<path style="fill:#faeaf4; stroke:none;" d="M54 44L55 45L54 44z"/>
<path style="fill:#f9e6ea; stroke:none;" d="M57 44L58 45L57 44z"/>
<path style="fill:#fdf3f3; stroke:none;" d="M58 44L59 45L58 44M132 44L133 45L132 44z"/>
<path style="fill:#f9e6ea; stroke:none;" d="M139 44L140 45L139 44z"/>
<path style="fill:#faeaf4; stroke:none;" d="M132.333 45.6667L132.667 46.3333L132.333 45.6667z"/>
<path style="fill:#fdf3f3; stroke:none;" d="M132 47L133 48L132 47z"/>
<path style="fill:#faeaf4; stroke:none;" d="M139 47L140 48L139 47z"/>
<path style="fill:#fdf3f3; stroke:none;" d="M133 48L134 49L133 48M134 49L135 50L134 49z"/>
<path style="fill:#faeaf4; stroke:none;" d="M135.667 49.3333L136.333 49.6667L135.667 49.3333z"/>
<path style="fill:#fdf3f3; stroke:none;" d="M137 49L138 50L137 49M86 52L87 53L86 52z"/>
<path style="fill:#faeaf4; stroke:none;" d="M87 52L88 53L87 52z"/>
<path style="fill:#f7e0f2; stroke:none;" d="M57 90C65.9035 83.7283 73.3049 74.6912 81 67C83.336 64.6652 87.2066 59.1331 91 59.6312C94.7758 60.1269 98.4858 65.486 101 68L126 93C157.15 124.15 188.83 154.83 220 186L247 213C249.617 215.617 255.793 219.899 255.793 224C255.793 228.634 247.985 234.015 245 237L210 272C204.921 277.079 195.237 283.069 198 291C204.417 288.008 208.879 281.86 214 277.09C225.927 265.979 237.466 254.534 249 243C254.314 237.686 263.554 231.442 262.876 223C262.397 217.042 256.929 212.93 253 209L225 181C194.821 150.821 164.182 121.182 134 91L108 65C103.878 60.8775 99.5761 55.1949 94 53.0131C83.1899 48.7835 70.4965 67.5031 64 74C61.3086 76.6916 57.4655 79.5385 55.7469 82.9985C54.4462 85.6172 55.7948 87.6719 57 90z"/>
<path style="fill:#faeaf4; stroke:none;" d="M93 52L94 53L93 52z"/>
<path style="fill:#fdf3f3; stroke:none;" d="M94 52L95 53L94 52z"/>
<path style="fill:#faeaf4; stroke:none;" d="M85 53L86 54L85 53z"/>
<path style="fill:#f9e6ea; stroke:none;" d="M95 53L96 54L95 53z"/>
<path style="fill:#fdf3f3; stroke:none;" d="M83 54L84 55L83 54M97 54L98 55L97 54M82 55L83 56L82 55M98 55L99 56L98 55M81 56L82 57L81 56M99 56L100 57L99 56M80 57L81 58L80 57M100 57L101 58L100 57M79 58L80 59L79 58z"/>
<path style="fill:#f9e6ea; stroke:none;" d="M89 58L90 59L89 58z"/>
<path style="fill:#faeaf4; stroke:none;" d="M90 58L91 59L90 58z"/>
<path style="fill:#f9e6ea; stroke:none;" d="M91 58L92 59L91 58z"/>
<path style="fill:#fdf3f3; stroke:none;" d="M101 58L102 59L101 58M78 59L79 60L78 59M88 59L53 95L79 70L88 59z"/>
<path style="fill:#ffffff; stroke:none;" d="M89 60.1759C84.7815 61.629 81.0646 66.9355 78 70C70.3817 77.6183 62.9898 85.6008 55 92.8302C42.2089 104.404 30.2007 116.799 18 129C12.6544 134.346 4.43883 140.178 1.02778 147C-3.68542 156.426 0 175.511 0 186L0 265C0 275.116 -2.90192 290.493 0.603395 300C3.50597 307.872 14.1616 315.162 20 321C36.1802 337.18 52.8184 352.818 69 369C73.1688 373.169 85.5125 390.059 92 387.824C96.565 386.252 100.677 380.323 104 377C112.513 368.487 121.48 360.478 130 351.999C159.738 322.405 189.334 292.666 219 263L247 235C249.617 232.383 255.793 228.101 255.793 224C255.793 220.188 250.424 216.425 248 214L224 190L128 94C118.819 84.8191 109.189 76.1701 100 67C97.3839 64.3893 93.3175 58.6888 89 60.1759z"/>
<path style="fill:#fdf3f3; stroke:none;" d="M92 59L93 60L92 59M102 59L103 60L102 59M77 60L78 61L77 60M93 60L94 61L93 60M103 60L104 61L103 60M76 61L77 62L76 61M94 61L95 62L94 61M104 61L105 62L104 61M75 62L76 63L75 62M95 62L96 63L95 62M105 62L106 63L105 62M74 63L75 64L74 63M96 63L97 64L96 63M106 63L107 64L106 63M73 64L74 65L73 64M97 64L98 65L97 64M107 64L108 65L107 64M72 65L73 66L72 65M98 65L99 66L98 65M108 65L109 66L108 65M71 66L72 67L71 66M99 66L100 67L99 66M109 66L110 67L109 66M70 67L71 68L70 67M100 67L101 68L100 67M110 67L111 68L110 67M69 68L70 69L69 68M101 68L102 69L101 68M111 68L112 69L111 68M68 69L69 70L68 69M102 69L103 70L102 69M112 69L113 70L112 69M67 70L68 71L67 70M103 70L104 71L103 70M113 70L114 71L113 70M66 71L67 72L66 71M104 71L105 72L104 71M114 71L115 72L114 71M65 72L66 73L65 72M105 72L106 73L105 72M115 72L116 73L115 72M64 73L65 74L64 73M106 73L107 74L106 73M116 73L117 74L116 73M63 74L64 75L63 74M107 74L108 75L107 74M117 74L118 75L117 74M16 75L17 76L16 75z"/>
<path style="fill:#faeaf4; stroke:none;" d="M17 75L18 76L17 75z"/>
<path style="fill:#f9e6ea; stroke:none;" d="M18.0394 76.1759C14.5055 76.7 15.2205 82.0076 18.8264 81.534C22.3264 81.0742 21.4459 75.6707 18.0394 76.1759z"/>
<path style="fill:#faeaf4; stroke:none;" d="M19 75L20 76L19 75z"/>
<path style="fill:#fdf3f3; stroke:none;" d="M62 75L63 76L62 75M108 75L109 76L108 75M118 75L119 76L118 75z"/>
<path style="fill:#faeaf4; stroke:none;" d="M15 76L16 77L15 76z"/>
<path style="fill:#fdf3f3; stroke:none;" d="M61 76L62 77L61 76M109 76L110 77L109 76M119 76L120 77L119 76M14 77L14 80L15 80L14 77z"/>
<path style="fill:#faeaf4; stroke:none;" d="M21 77L22 78L21 77z"/>
<path style="fill:#fdf3f3; stroke:none;" d="M60 77L61 78L60 77M110 77L111 78L110 77M120 77L121 78L120 77M59 78L60 79L59 78M111 78L112 79L111 78M121 78L122 79L121 78M58 79L59 80L58 79M97 79L97 80L100 80L97 79M112 79L113 80L112 79z"/>
<path style="fill:#faeaf4; stroke:none;" d="M122 79L123 80L122 79M21 80L22 81L21 80z"/>
<path style="fill:#fdf3f3; stroke:none;" d="M57 80L58 81L57 80z"/>
<path style="fill:#f9e6ea; stroke:none;" d="M96 80L95 82L96 80z"/>
<path style="fill:#f7e0f2; stroke:none;" d="M97.3179 81.1751C94.318 82.7079 96.6882 87.3546 99.6821 85.8249C102.682 84.2921 100.312 79.6454 97.3179 81.1751z"/>
<path style="fill:#faeaf4; stroke:none;" d="M100 80L101 81L100 80M123 80L124 81L123 80z"/>
<path style="fill:#fdf3f3; stroke:none;" d="M15 81L16 82L15 81M56 81L57 82L56 81z"/>
<path style="fill:#faeaf4; stroke:none;" d="M101 81L102 82L101 81M124 81L125 82L124 81z"/>
<path style="fill:#fdf3f3; stroke:none;" d="M16 82L17 83L16 82z"/>
<path style="fill:#faeaf4; stroke:none;" d="M17.6667 82.3333L18.3333 82.6667L17.6667 82.3333z"/>
<path style="fill:#fdf3f3; stroke:none;" d="M19 82L20 83L19 82M55 82L56 83L55 82M94 82L94 85L95 85L94 82z"/>
<path style="fill:#faeaf4; stroke:none;" d="M125 82L126 83L125 82z"/>
<path style="fill:#fdf3f3; stroke:none;" d="M54 83L55 84L54 83M102 83L103 84L102 83z"/>
<path style="fill:#faeaf4; stroke:none;" d="M126 83L127 84L126 83z"/>
<path style="fill:#fdf3f3; stroke:none;" d="M53 84L34 104C39.8753 99.8613 51.2804 91.0939 53 84z"/>
<path style="fill:#faeaf4; stroke:none;" d="M127 84L128 85L127 84z"/>
<path style="fill:#fdf3f3; stroke:none;" d="M176 84L175 86L176 84z"/>
<path style="fill:#f9e6ea; stroke:none;" d="M177 84L178 85L177 84z"/>
<path style="fill:#f7e0f2; stroke:none;" d="M178.09 85.1759C174.464 85.6937 175.234 90.995 178.91 90.534C182.617 90.0689 181.645 84.6684 178.09 85.1759z"/>
<path style="fill:#f9e6ea; stroke:none;" d="M179 84L180 85L179 84z"/>
<path style="fill:#fdf3f3; stroke:none;" d="M180 84L181 85L180 84z"/>
<path style="fill:#f9e6ea; stroke:none;" d="M53 85L14 124C7.16421 130.836 0.0361192 135.774 0 146C16.3528 134.481 30.8375 117.163 45 103C49.7647 98.2353 60.4741 91.3137 53 85z"/>
<path style="fill:#faeaf4; stroke:none;" d="M95 85L96 86L95 85M101 85L102 86L101 85M128 85L129 86L128 85M181 85L182 86L181 85M96 86L97 87L96 86M100 86L101 87L100 86M129 86L130 87L129 86M130 87L131 88L130 87z"/>
<path style="fill:#fdf3f3; stroke:none;" d="M174.333 87.6667L174.667 88.3333L174.333 87.6667M182.333 87.6667L182.667 88.3333L182.333 87.6667z"/>
<path style="fill:#faeaf4; stroke:none;" d="M131 88L132 89L131 88M132 89L133 90L132 89M133 90L134 91L133 90z"/>
<path style="fill:#fdf3f3; stroke:none;" d="M175 90L176 91L175 90M181 90L182 91L181 90z"/>
<path style="fill:#faeaf4; stroke:none;" d="M134 91L135 92L134 91M177 91L177 92L180 92L177 91M135 92L136 93L135 92M136 93L137 94L136 93M137 94L138 95L137 94M138 95L139 96L138 95M139 96L140 97L139 96M140 97L141 98L140 97M141 98L142 99L141 98M142 99L143 100L142 99M143 100L144 101L143 100M144 101L145 102L144 101M145 102L146 103L145 102M146 103L147 104L146 103M33 104L34 105L33 104M147 104L148 105L147 104M32 105L33 106L32 105M148 105L149 106L148 105M31 106L32 107L31 106M149 106L150 107L149 106M30 107L31 108L30 107M150 107L151 108L150 107M29 108L30 109L29 108M151 108L152 109L151 108M28 109L29 110L28 109z"/>
<path style="fill:#f9e6ea; stroke:none;" d="M143 109L144 110L143 109z"/>
<path style="fill:#faeaf4; stroke:none;" d="M152 109L153 110L152 109M27 110L28 111L27 110z"/>
<path style="fill:#f9e6ea; stroke:none;" d="M144 110L145 111L144 110z"/>
<path style="fill:#faeaf4; stroke:none;" d="M153 110L154 111L153 110M26 111L27 112L26 111z"/>
<path style="fill:#f9e6ea; stroke:none;" d="M145 111L146 112L145 111z"/>
<path style="fill:#faeaf4; stroke:none;" d="M154 111L155 112L154 111M25 112L26 113L25 112z"/>
<path style="fill:#f9e6ea; stroke:none;" d="M146 112L147 113L146 112z"/>
<path style="fill:#faeaf4; stroke:none;" d="M155 112L156 113L155 112M24 113L25 114L24 113z"/>
<path style="fill:#f9e6ea; stroke:none;" d="M147 113L148 114L147 113z"/>
<path style="fill:#faeaf4; stroke:none;" d="M156 113L157 114L156 113M23 114L24 115L23 114z"/>
<path style="fill:#f9e6ea; stroke:none;" d="M148 114L149 115L148 114z"/>
<path style="fill:#faeaf4; stroke:none;" d="M157 114L158 115L157 114M22 115L23 116L22 115z"/>
<path style="fill:#f9e6ea; stroke:none;" d="M149 115L150 116L149 115z"/>
<path style="fill:#faeaf4; stroke:none;" d="M158 115L159 116L158 115M21 116L22 117L21 116z"/>
<path style="fill:#f9e6ea; stroke:none;" d="M150 116L151 117L150 116z"/>
<path style="fill:#faeaf4; stroke:none;" d="M159 116L160 117L159 116M20 117L21 118L20 117M59 117L60 118L59 117z"/>
<path style="fill:#f9e6ea; stroke:none;" d="M60.0903 118.176C56.4638 118.694 57.2343 123.995 60.9097 123.534C64.6171 123.069 63.6449 117.668 60.0903 118.176z"/>
<path style="fill:#faeaf4; stroke:none;" d="M61 117L62 118L61 117z"/>
<path style="fill:#fdf3f3; stroke:none;" d="M62 117L63 118L62 117z"/>
<path style="fill:#f9e6ea; stroke:none;" d="M151 117L152 118L151 117z"/>
<path style="fill:#faeaf4; stroke:none;" d="M160 117L161 118L160 117M19 118L20 119L19 118z"/>
<path style="fill:#fdf3f3; stroke:none;" d="M57 118L58 119L57 118M63 118L64 119L63 118z"/>
<path style="fill:#f9e6ea; stroke:none;" d="M152 118L153 119L152 118z"/>
<path style="fill:#faeaf4; stroke:none;" d="M161 118L162 119L161 118M18 119L19 120L18 119z"/>
<path style="fill:#f9e6ea; stroke:none;" d="M153 119L154 120L153 119z"/>
<path style="fill:#faeaf4; stroke:none;" d="M162 119L163 120L162 119M17 120L18 121L17 120z"/>
<path style="fill:#fdf3f3; stroke:none;" d="M64.3333 120.667L64.6667 121.333L64.3333 120.667z"/>
<path style="fill:#f9e6ea; stroke:none;" d="M154 120L155 121L154 120z"/>
<path style="fill:#faeaf4; stroke:none;" d="M163 120L164 121L163 120M16 121L17 122L16 121z"/>
<path style="fill:#fdf3f3; stroke:none;" d="M140.667 121.333L141.333 121.667L140.667 121.333z"/>
<path style="fill:#f9e6ea; stroke:none;" d="M155 121L156 122L155 121z"/>
<path style="fill:#faeaf4; stroke:none;" d="M164 121L165 122L164 121M15 122L16 123L15 122M138 122L137 124L138 122z"/>
<path style="fill:#f7e0f2; stroke:none;" d="M139.318 123.086C136.016 125.109 139.335 129.859 142.397 127.763C145.271 125.796 142.406 121.193 139.318 123.086z"/>
<path style="fill:#f9e6ea; stroke:none;" d="M156 122L157 123L156 122z"/>
<path style="fill:#faeaf4; stroke:none;" d="M165 122L166 123L165 122M14 123L15 124L14 123M23 123L24 124L23 123z"/>
<path style="fill:#fdf3f3; stroke:none;" d="M57 123L58 124L57 123M63 123L64 124L63 123z"/>
<path style="fill:#f9e6ea; stroke:none;" d="M157 123L158 124L157 123z"/>
<path style="fill:#faeaf4; stroke:none;" d="M166 123L167 124L166 123M13 124L14 125L13 124M22 124L23 125L22 124M59 124L59 125L62 125L59 124z"/>
<path style="fill:#fdf3f3; stroke:none;" d="M62 124L63 125L62 124M144 124L145 125L144 124z"/>
<path style="fill:#f9e6ea; stroke:none;" d="M158 124L159 125L158 124z"/>
<path style="fill:#faeaf4; stroke:none;" d="M167 124L168 125L167 124M12 125L13 126L12 125M21 125L22 126L21 125M144 125L145 126L144 125z"/>
<path style="fill:#f9e6ea; stroke:none;" d="M159 125L160 126L159 125z"/>
<path style="fill:#faeaf4; stroke:none;" d="M168 125L169 126L168 125M11 126L12 127L11 126M20 126L21 127L20 126z"/>
<path style="fill:#fdf3f3; stroke:none;" d="M144 126L145 127L144 126z"/>
<path style="fill:#f9e6ea; stroke:none;" d="M160 126L161 127L160 126z"/>
<path style="fill:#faeaf4; stroke:none;" d="M169 126L170 127L169 126M219 126L220 127L219 126z"/>
<path style="fill:#f7e0f2; stroke:none;" d="M220.174 127.176C216.757 127.687 217.431 132.994 220.961 132.534C224.581 132.062 223.653 126.656 220.174 127.176z"/>
<path style="fill:#f9e6ea; stroke:none;" d="M221 126L222 127L221 126z"/>
<path style="fill:#fdf3f3; stroke:none;" d="M222 126L223 127L222 126z"/>
<path style="fill:#faeaf4; stroke:none;" d="M10 127L11 128L10 127M19 127L20 128L19 127z"/>
<path style="fill:#fdf3f3; stroke:none;" d="M137 127L138 128L137 127z"/>
<path style="fill:#f9e6ea; stroke:none;" d="M161 127L162 128L161 127M170 127L171 128L170 127M223 127L224 128L223 127z"/>
<path style="fill:#faeaf4; stroke:none;" d="M9 128L10 129L9 128M18 128L19 129L18 128z"/>
<path style="fill:#fdf3f3; stroke:none;" d="M138 128L139 129L138 128z"/>
<path style="fill:#f9e6ea; stroke:none;" d="M142 128L143 129L142 128z"/>
<path style="fill:#faeaf4; stroke:none;" d="M162 128L163 129L162 128z"/>
<path style="fill:#f9e6ea; stroke:none;" d="M171 128L172 129L171 128z"/>
<path style="fill:#faeaf4; stroke:none;" d="M217 128L218 129L217 128z"/>
<path style="fill:#fdf3f3; stroke:none;" d="M224 128L225 129L224 128z"/>
<path style="fill:#faeaf4; stroke:none;" d="M8 129L9 130L8 129M17 129L18 130L17 129z"/>
<path style="fill:#fdf3f3; stroke:none;" d="M140 129L141 130L140 129z"/>
<path style="fill:#faeaf4; stroke:none;" d="M163 129L164 130L163 129z"/>
<path style="fill:#f9e6ea; stroke:none;" d="M172 129L173 130L172 129z"/>
<path style="fill:#faeaf4; stroke:none;" d="M224.333 129.667L224.667 130.333L224.333 129.667M7 130L8 131L7 130M16 130L17 131L16 130M164 130L165 131L164 130z"/>
<path style="fill:#f9e6ea; stroke:none;" d="M173 130L174 131L173 130z"/>
<path style="fill:#faeaf4; stroke:none;" d="M6 131L7 132L6 131M15 131L16 132L15 131M165 131L166 132L165 131z"/>
<path style="fill:#f9e6ea; stroke:none;" d="M174 131L175 132L174 131z"/>
<path style="fill:#faeaf4; stroke:none;" d="M217 131L218 132L217 131z"/>
<path style="fill:#fdf3f3; stroke:none;" d="M224 131L225 132L224 131z"/>
<path style="fill:#faeaf4; stroke:none;" d="M5 132L6 133L5 132M14 132L15 133L14 132M166 132L167 133L166 132z"/>
<path style="fill:#f9e6ea; stroke:none;" d="M175 132L176 133L175 132z"/>
<path style="fill:#faeaf4; stroke:none;" d="M223 132L224 133L223 132M4 133L5 134L4 133M13 133L14 134L13 133M167 133L168 134L167 133z"/>
<path style="fill:#f9e6ea; stroke:none;" d="M176 133L177 134L176 133z"/>
<path style="fill:#fdf3f3; stroke:none;" d="M219 133L220 134L219 133z"/>
<path style="fill:#faeaf4; stroke:none;" d="M220.667 133.333L221.333 133.667L220.667 133.333z"/>
<path style="fill:#fdf3f3; stroke:none;" d="M222 133L223 134L222 133z"/>
<path style="fill:#faeaf4; stroke:none;" d="M3 134L4 135L3 134M12 134L13 135L12 134M168 134L169 135L168 134z"/>
<path style="fill:#f9e6ea; stroke:none;" d="M177 134L178 135L177 134z"/>
<path style="fill:#faeaf4; stroke:none;" d="M2 135L3 136L2 135M11 135L12 136L11 135M169 135L170 136L169 135z"/>
<path style="fill:#f9e6ea; stroke:none;" d="M178 135L179 136L178 135z"/>
<path style="fill:#faeaf4; stroke:none;" d="M1 136L2 137L1 136M10 136L11 137L10 136M170 136L171 137L170 136z"/>
<path style="fill:#f9e6ea; stroke:none;" d="M179 136L180 137L179 136z"/>
<path style="fill:#faeaf4; stroke:none;" d="M0 137L1 138L0 137M9 137L10 138L9 137M171 137L172 138L171 137z"/>
<path style="fill:#f9e6ea; stroke:none;" d="M180 137L181 138L180 137z"/>
<path style="fill:#faeaf4; stroke:none;" d="M8 138L9 139L8 138M172 138L173 139L172 138z"/>
<path style="fill:#f9e6ea; stroke:none;" d="M181 138L182 139L181 138z"/>
<path style="fill:#faeaf4; stroke:none;" d="M7 139L8 140L7 139M173 139L174 140L173 139z"/>
<path style="fill:#f9e6ea; stroke:none;" d="M182 139L183 140L182 139z"/>
<path style="fill:#faeaf4; stroke:none;" d="M6 140L7 141L6 140M174 140L175 141L174 140M5 141L6 142L5 141M175 141L176 142L175 141M4 142L5 143L4 142M176 142L177 143L176 142M3 143L4 144L3 143M177 143L178 144L177 143M2 144L3 145L2 144M178 144L179 145L178 144M1 145L2 146L1 145M179 145L180 146L179 145M0 146L1 147L0 146M180 146L181 147L180 146M181 147L182 148L181 147M182 148L183 149L182 148M183 149L184 150L183 149M184 150L185 151L184 150M185 151L186 152L185 151M186 152L187 153L186 152M187 153L188 154L187 153M188 154L189 155L188 154z"/>
<path style="fill:#fdf3f3; stroke:none;" d="M20 155L19 157L20 155z"/>
<path style="fill:#f9e6ea; stroke:none;" d="M21.3179 156.136C17.9763 158.059 21.3742 162.95 24.3966 160.917C27.2897 158.972 24.3983 154.363 21.3179 156.136z"/>
<path style="fill:#faeaf4; stroke:none;" d="M24 155L25 156L24 155M189 155L190 156L189 155M190 156L191 157L190 156z"/>
<path style="fill:#fdf3f3; stroke:none;" d="M26 157L26 160L27 160L26 157z"/>
<path style="fill:#faeaf4; stroke:none;" d="M191 157L192 158L191 157M192 158L193 159L192 158z"/>
<path style="fill:#fdf3f3; stroke:none;" d="M101 159L102 160L101 159z"/>
<path style="fill:#faeaf4; stroke:none;" d="M102.667 159.333L103.333 159.667L102.667 159.333z"/>
<path style="fill:#fdf3f3; stroke:none;" d="M104 159L105 160L104 159z"/>
<path style="fill:#faeaf4; stroke:none;" d="M193 159L194 160L193 159z"/>
<path style="fill:#fdf3f3; stroke:none;" d="M19 160L20 161L19 160z"/>
<path style="fill:#f9e6ea; stroke:none;" d="M100.782 161.042C98.0469 163.274 101.768 167.024 104.393 164.958C107.212 162.738 103.364 158.935 100.782 161.042z"/>
<path style="fill:#faeaf4; stroke:none;" d="M105 160L106 161L105 160M194 160L195 161L194 160z"/>
<path style="fill:#fdf3f3; stroke:none;" d="M20 161L21 162L20 161z"/>
<path style="fill:#faeaf4; stroke:none;" d="M99 161L100 162L99 161z"/>
<path style="fill:#fdf3f3; stroke:none;" d="M106 161L107 162L106 161z"/>
<path style="fill:#faeaf4; stroke:none;" d="M195 161L196 162L195 161z"/>
<path style="fill:#fdf3f3; stroke:none;" d="M22.6667 162.333L23.3333 162.667L22.6667 162.333z"/>
<path style="fill:#faeaf4; stroke:none;" d="M106.333 162.667L106.667 163.333L106.333 162.667M196 162L197 163L196 162z"/>
<path style="fill:#fdf3f3; stroke:none;" d="M182.667 163.333L183.333 163.667L182.667 163.333z"/>
<path style="fill:#faeaf4; stroke:none;" d="M197 163L198 164L197 163M99 164L100 165L99 164z"/>
<path style="fill:#fdf3f3; stroke:none;" d="M106 164L107 165L106 164M180 164L181 165L180 164z"/>
<path style="fill:#f7e0f2; stroke:none;" d="M181.593 165.086C178.839 167.015 181.469 171.925 184.542 169.914C187.555 167.942 184.569 163 181.593 165.086z"/>
<path style="fill:#fdf3f3; stroke:none;" d="M185 164L186 165L185 164z"/>
<path style="fill:#faeaf4; stroke:none;" d="M198 164L199 165L198 164M105 165L106 166L105 165z"/>
<path style="fill:#fdf3f3; stroke:none;" d="M186 165L187 166L186 165z"/>
<path style="fill:#faeaf4; stroke:none;" d="M199 165L200 166L199 165z"/>
<path style="fill:#fdf3f3; stroke:none;" d="M101 166L102 167L101 166z"/>
<path style="fill:#faeaf4; stroke:none;" d="M102.667 166.333L103.333 166.667L102.667 166.333z"/>
<path style="fill:#fdf3f3; stroke:none;" d="M104 166L105 167L104 166z"/>
<path style="fill:#faeaf4; stroke:none;" d="M179 166L179 169L180 169L179 166M186 166L187 167L186 166M200 166L201 167L200 166M201 167L202 168L201 167M186 168L187 169L186 168M202 168L203 169L202 168z"/>
<path style="fill:#fdf3f3; stroke:none;" d="M261 168L262 169L261 168z"/>
<path style="fill:#f9e6ea; stroke:none;" d="M262 168L263 169L262 168z"/>
<path style="fill:#f7e0f2; stroke:none;" d="M263.039 169.176C259.505 169.7 260.22 175.008 263.826 174.534C267.326 174.074 266.446 168.671 263.039 169.176z"/>
<path style="fill:#faeaf4; stroke:none;" d="M264 168L265 169L264 168z"/>
<path style="fill:#fdf3f3; stroke:none;" d="M186 169L187 170L186 169z"/>
<path style="fill:#faeaf4; stroke:none;" d="M203 169L204 170L203 169M260 169L261 170L260 169z"/>
<path style="fill:#fdf3f3; stroke:none;" d="M180 170L181 171L180 170M185 170L186 171L185 170z"/>
<path style="fill:#faeaf4; stroke:none;" d="M204 170L205 171L204 170z"/>
<path style="fill:#fdf3f3; stroke:none;" d="M259 170L260 171L259 170z"/>
<path style="fill:#faeaf4; stroke:none;" d="M266 170L267 171L266 170z"/>
<path style="fill:#fdf3f3; stroke:none;" d="M182.667 171.333L183.333 171.667L182.667 171.333z"/>
<path style="fill:#faeaf4; stroke:none;" d="M205 171L206 172L205 171M259.333 171.667L259.667 172.333L259.333 171.667M206 172L207 173L206 172M207 173L208 174L207 173z"/>
<path style="fill:#fdf3f3; stroke:none;" d="M259 173L260 174L259 173z"/>
<path style="fill:#faeaf4; stroke:none;" d="M266 173L267 174L266 173M208 174L209 175L208 174z"/>
<path style="fill:#fdf3f3; stroke:none;" d="M218 174L219 175L218 174z"/>
<path style="fill:#faeaf4; stroke:none;" d="M260 174L261 175L260 174M209 175L210 176L209 175z"/>
<path style="fill:#fdf3f3; stroke:none;" d="M219 175L220 176L219 175M261 175L262 176L261 175z"/>
<path style="fill:#faeaf4; stroke:none;" d="M262 175L263 176L262 175z"/>
<path style="fill:#f9e6ea; stroke:none;" d="M263 175L264 176L263 175z"/>
<path style="fill:#faeaf4; stroke:none;" d="M264 175L265 176L264 175z"/>
<path style="fill:#fdf3f3; stroke:none;" d="M210 176L211 177L210 176M220 176L221 177L220 176M211 177L212 178L211 177M221 177L222 178L221 177M212 178L213 179L212 178M222 178L223 179L222 178M213 179L214 180L213 179M223 179L224 180L223 179M214 180L215 181L214 180M224 180L225 181L224 180M215 181L216 182L215 181M225 181L226 182L225 181M216 182L217 183L216 182M226 182L227 183L226 182M217 183L218 184L217 183M227 183L228 184L227 183M218 184L219 185L218 184M228 184L229 185L228 184M219 185L220 186L219 185M229 185L230 186L229 185M220 186L221 187L220 186M230 186L231 187L230 186M221 187L222 188L221 187M231 187L232 188L231 187M222 188L223 189L222 188M232 188L233 189L232 188M223 189L224 190L223 189M233 189L234 190L233 189M224 190L225 191L224 190M234 190L235 191L234 190M225 191L226 192L225 191M235 191L236 192L235 191M226 192L227 193L226 192M236 192L237 193L236 192M227 193L228 194L227 193M237 193L238 194L237 193M228 194L229 195L228 194M238 194L239 195L238 194M229 195L230 196L229 195M239 195L240 196L239 195M230 196L231 197L230 196M240 196L241 197L240 196z"/>
<path style="fill:#faeaf4; stroke:none;" d="M63 197L64 198L63 197z"/>
<path style="fill:#f9e6ea; stroke:none;" d="M64.2739 197.89C61.1067 198.944 62.4664 204.262 65.8148 203.248C69.2713 202.202 67.7732 196.726 64.2739 197.89z"/>
<path style="fill:#fdf3f3; stroke:none;" d="M67 197L68 198L67 197M231 197L232 198L231 197M241 197L242 198L241 197M68 198L69 199L68 198M232 198L233 199L232 198M242 198L243 199L242 198M61 199L62 200L61 199z"/>
<path style="fill:#faeaf4; stroke:none;" d="M68 199L69 200L68 199z"/>
<path style="fill:#fdf3f3; stroke:none;" d="M233 199L234 200L233 199M243 199L244 200L243 199z"/>
<path style="fill:#faeaf4; stroke:none;" d="M61 200L62 201L61 200z"/>
<path style="fill:#fdf3f3; stroke:none;" d="M234 200L235 201L234 200M244 200L245 201L244 200M61 201L62 202L61 201z"/>
<path style="fill:#faeaf4; stroke:none;" d="M68 201L69 202L68 201z"/>
<path style="fill:#fdf3f3; stroke:none;" d="M143 201L144 202L143 201z"/>
<path style="fill:#faeaf4; stroke:none;" d="M144.667 201.333L145.333 201.667L144.667 201.333z"/>
<path style="fill:#fdf3f3; stroke:none;" d="M146 201L147 202L146 201M235 201L236 202L235 201M245 201L246 202L245 201M68 202L69 203L68 202z"/>
<path style="fill:#faeaf4; stroke:none;" d="M142 202L143 203L142 202z"/>
<path style="fill:#f7e0f2; stroke:none;" d="M143.618 203.082C140.705 205.105 144.66 209.133 147.204 206.958C149.652 204.864 146.001 201.427 143.618 203.082z"/>
<path style="fill:#f9e6ea; stroke:none;" d="M147 202L148 203L147 202z"/>
<path style="fill:#fdf3f3; stroke:none;" d="M236 202L237 203L236 202M246 202L247 203L246 202M62 203L63 204L62 203M67 203L68 204L67 203M141 203L141 207L142 207L141 203z"/>
<path style="fill:#faeaf4; stroke:none;" d="M148 203L149 204L148 203z"/>
<path style="fill:#fdf3f3; stroke:none;" d="M237 203L238 204L237 203M247 203L248 204L247 203M64.6667 204.333L65.3333 204.667L64.6667 204.333M238 204L239 205L238 204M248 204L249 205L248 204M225 205L226 206L225 205M239 205L240 206L239 205M249 205L250 206L249 205z"/>
<path style="fill:#faeaf4; stroke:none;" d="M148 206L149 207L148 206z"/>
<path style="fill:#f9e6ea; stroke:none;" d="M223 206L222 208L223 206z"/>
<path style="fill:#f7e0f2; stroke:none;" d="M224.303 207.172C220.955 208.787 223.384 213.763 226.682 211.864C229.6 210.184 227.365 205.695 224.303 207.172z"/>
<path style="fill:#faeaf4; stroke:none;" d="M227 206L228 207L227 206z"/>
<path style="fill:#fdf3f3; stroke:none;" d="M240 206L241 207L240 206M250 206L251 207L250 206z"/>
<path style="fill:#faeaf4; stroke:none;" d="M142 207L143 208L142 207M228 207L229 208L228 207z"/>
<path style="fill:#fdf3f3; stroke:none;" d="M241 207L242 208L241 207M251 207L252 208L251 207M143 208L144 209L143 208z"/>
<path style="fill:#f9e6ea; stroke:none;" d="M144.667 208.333L145.333 208.667L144.667 208.333z"/>
<path style="fill:#faeaf4; stroke:none;" d="M146 208L147 209L146 208z"/>
<path style="fill:#fdf3f3; stroke:none;" d="M221 208L221 211L222 211L221 208M242 208L243 209L242 208M252 208L253 209L252 208M243 209L244 210L243 209M253 209L254 210L253 209M244 210L245 211L244 210M254 210L255 211L254 210z"/>
<path style="fill:#faeaf4; stroke:none;" d="M228 211L229 212L228 211z"/>
<path style="fill:#fdf3f3; stroke:none;" d="M245 211L246 212L245 211M255 211L256 212L255 211z"/>
<path style="fill:#f9e6ea; stroke:none;" d="M223 212L224 213L223 212z"/>
<path style="fill:#faeaf4; stroke:none;" d="M227 212L228 213L227 212z"/>
<path style="fill:#fdf3f3; stroke:none;" d="M246 212L247 213L246 212M256 212L257 213L256 212M224.667 213.333L225.333 213.667L224.667 213.333M247 213L248 214L247 213M257 213L258 214L257 213M248 214L249 215L248 214M258 214L259 215L258 214M249 215L250 216L249 215M259 215L260 216L259 215M250 216L251 217L250 216M260 216L261 217L260 216M251 217L252 218L251 217M261 217L262 218L261 217M252 218L253 219L252 218M253 219L254 220L253 219z"/>
<path style="fill:#faeaf4; stroke:none;" d="M262 219L263 220L262 219z"/>
<path style="fill:#fdf3f3; stroke:none;" d="M254 220L255 221L254 220M255 221L256 222L255 221M263 221L264 222L263 221M256 222L257 223L256 222z"/>
<path style="fill:#faeaf4; stroke:none;" d="M263 222L263 226L264 226L263 222M256 225L257 226L256 225z"/>
<path style="fill:#fdf3f3; stroke:none;" d="M255 226L256 227L255 226M263 226L264 227L263 226M254 227L255 228L254 227M253 228L254 229L253 228z"/>
<path style="fill:#faeaf4; stroke:none;" d="M262 228L263 229L262 228z"/>
<path style="fill:#fdf3f3; stroke:none;" d="M252 229L253 230L252 229M251 230L252 231L251 230M261 230L262 231L261 230M250 231L251 232L250 231M260 231L261 232L260 231M249 232L250 233L249 232M259 232L260 233L259 232M248 233L249 234L248 233M258 233L259 234L258 233M26 234L26 235L29 235L26 234M247 234L248 235L247 234M257 234L258 235L257 234M24 235L25 236L24 235z"/>
<path style="fill:#f9e6ea; stroke:none;" d="M25.6181 236.083C22.7402 238.104 26.627 242.606 29.2037 240.154C31.548 237.922 28.1142 234.329 25.6181 236.083z"/>
<path style="fill:#faeaf4; stroke:none;" d="M29 235L30 236L29 235z"/>
<path style="fill:#fdf3f3; stroke:none;" d="M246 235L247 236L246 235M256 235L257 236L256 235z"/>
<path style="fill:#faeaf4; stroke:none;" d="M30 236L31 237L30 236z"/>
<path style="fill:#fdf3f3; stroke:none;" d="M245 236L246 237L245 236M255 236L256 237L255 236M23 237L23 240L24 240L23 237M244 237L245 238L244 237M254 237L255 238L254 237M243 238L244 239L243 238M253 238L254 239L253 238z"/>
<path style="fill:#faeaf4; stroke:none;" d="M30 239L31 240L30 239M105 239L104 241L105 239z"/>
<path style="fill:#f9e6ea; stroke:none;" d="M106.303 240.175C102.975 241.815 105.319 246.976 108.682 244.914C111.536 243.165 109.395 238.652 106.303 240.175z"/>
<path style="fill:#fdf3f3; stroke:none;" d="M109 239L110 240L109 239M242 239L243 240L242 239M252 239L253 240L252 239z"/>
<path style="fill:#faeaf4; stroke:none;" d="M24 240L25 241L24 240z"/>
<path style="fill:#fdf3f3; stroke:none;" d="M30 240L31 241L30 240M110 240L111 241L110 240M241 240L242 241L241 240M251 240L252 241L251 240M25 241L26 242L25 241z"/>
<path style="fill:#faeaf4; stroke:none;" d="M26 241L27 242L26 241M28 241L29 242L28 241z"/>
<path style="fill:#fdf3f3; stroke:none;" d="M240 241L241 242L240 241M250 241L251 242L250 241M103.333 242.667L103.667 243.333L103.333 242.667M239 242L240 243L239 242M249 242L250 243L249 242M186 243L187 244L186 243z"/>
<path style="fill:#faeaf4; stroke:none;" d="M187.667 243.333L188.333 243.667L187.667 243.333z"/>
<path style="fill:#fdf3f3; stroke:none;" d="M238 243L239 244L238 243M248 243L249 244L248 243z"/>
<path style="fill:#faeaf4; stroke:none;" d="M110 244L111 245L110 244z"/>
<path style="fill:#fdf3f3; stroke:none;" d="M184 244L185 245L184 244z"/>
<path style="fill:#f7e0f2; stroke:none;" d="M185.757 245.042C182.853 247.33 186.697 251.024 189.382 248.958C192.244 246.754 188.38 242.976 185.757 245.042z"/>
<path style="fill:#fdf3f3; stroke:none;" d="M190 244L191 245L190 244M237 244L238 245L237 244M247 244L248 245L247 244z"/>
<path style="fill:#faeaf4; stroke:none;" d="M109 245L110 246L109 245z"/>
<path style="fill:#f9e6ea; stroke:none;" d="M184 245L185 246L184 245z"/>
<path style="fill:#fdf3f3; stroke:none;" d="M236 245L237 246L236 245M246 245L247 246L246 245M106 246L106 247L109 247L106 246M191.333 246.667L191.667 247.333L191.333 246.667M235 246L236 247L235 246M245 246L246 247L245 246M183 247L184 248L183 247M234 247L235 248L234 247M244 247L245 248L244 247M233 248L234 249L233 248M243 248L244 249L243 248M184 249L185 250L184 249M190 249L191 250L190 249M232 249L233 250L232 249M242 249L243 250L242 249M185 250L186 251L185 250z"/>
<path style="fill:#faeaf4; stroke:none;" d="M186 250L187 251L186 250z"/>
<path style="fill:#f9e6ea; stroke:none;" d="M187 250L188 251L187 250z"/>
<path style="fill:#faeaf4; stroke:none;" d="M188 250L189 251L188 250z"/>
<path style="fill:#fdf3f3; stroke:none;" d="M189 250L190 251L189 250M231 250L232 251L231 250M241 250L242 251L241 250M230 251L231 252L230 251M240 251L241 252L240 251M229 252L230 253L229 252M239 252L240 253L239 252M228 253L229 254L228 253M238 253L239 254L238 253M227 254L228 255L227 254M237 254L238 255L237 254z"/>
<path style="fill:#faeaf4; stroke:none;" d="M226 255L227 256L226 255z"/>
<path style="fill:#fdf3f3; stroke:none;" d="M236 255L237 256L236 255z"/>
<path style="fill:#faeaf4; stroke:none;" d="M225 256L226 257L225 256M224 257L225 258L224 257M223 258L224 259L223 258M222 259L223 260L222 259M221 260L222 261L221 260M220 261L221 262L220 261M219 262L220 263L219 262M218 263L219 264L218 263M217 264L218 265L217 264M216 265L217 266L216 265M215 266L216 267L215 266M214 267L215 268L214 267M213 268L214 269L213 268M212 269L213 270L212 269M211 270L212 271L211 270M210 271L211 272L210 271M209 272L210 273L209 272M208 273L209 274L208 273M207 274L208 275L207 274z"/>
<path style="fill:#f9e6ea; stroke:none;" d="M216 274L217 275L216 274z"/>
<path style="fill:#faeaf4; stroke:none;" d="M206 275L207 276L206 275z"/>
<path style="fill:#f9e6ea; stroke:none;" d="M215 275L216 276L215 275z"/>
<path style="fill:#fdf3f3; stroke:none;" d="M68 276L68 277L71 277L68 276z"/>
<path style="fill:#faeaf4; stroke:none;" d="M205 276L206 277L205 276z"/>
<path style="fill:#f9e6ea; stroke:none;" d="M214 276L215 277L214 276M67.757 278.043C64.9239 280.299 68.6579 284.69 71.382 282.292C74.1241 279.879 70.536 275.83 67.757 278.043z"/>
<path style="fill:#fdf3f3; stroke:none;" d="M72 277L73 278L72 277z"/>
<path style="fill:#faeaf4; stroke:none;" d="M204 277L205 278L204 277z"/>
<path style="fill:#f9e6ea; stroke:none;" d="M213 277L214 278L213 277z"/>
<path style="fill:#faeaf4; stroke:none;" d="M66 278L67 279L66 278M203 278L204 279L203 278z"/>
<path style="fill:#f9e6ea; stroke:none;" d="M212 278L213 279L212 278z"/>
<path style="fill:#fdf3f3; stroke:none;" d="M73.3333 279.667L73.6667 280.333L73.3333 279.667z"/>
<path style="fill:#faeaf4; stroke:none;" d="M202 279L203 280L202 279z"/>
<path style="fill:#f9e6ea; stroke:none;" d="M211 279L212 280L211 279z"/>
<path style="fill:#faeaf4; stroke:none;" d="M201 280L202 281L201 280z"/>
<path style="fill:#f9e6ea; stroke:none;" d="M210 280L211 281L210 280z"/>
<path style="fill:#fdf3f3; stroke:none;" d="M147 281L146 283L147 281z"/>
<path style="fill:#f9e6ea; stroke:none;" d="M148.318 282.175C144.892 283.922 148.427 289.024 151.382 286.914C153.97 285.067 151.104 280.755 148.318 282.175z"/>
<path style="fill:#faeaf4; stroke:none;" d="M151 281L152 282L151 281M200 281L201 282L200 281z"/>
<path style="fill:#f9e6ea; stroke:none;" d="M209 281L210 282L209 281z"/>
<path style="fill:#fdf3f3; stroke:none;" d="M66 282L67 283L66 282M72 282L73 283L72 282z"/>
<path style="fill:#faeaf4; stroke:none;" d="M152 282L153 283L152 282M199 282L200 283L199 282z"/>
<path style="fill:#f9e6ea; stroke:none;" d="M208 282L209 283L208 282z"/>
<path style="fill:#fdf3f3; stroke:none;" d="M67 283L68 284L67 283z"/>
<path style="fill:#faeaf4; stroke:none;" d="M68 283L69 284L68 283z"/>
<path style="fill:#fdf3f3; stroke:none;" d="M71 283L72 284L71 283M153 283L153 286L154 286L153 283z"/>
<path style="fill:#faeaf4; stroke:none;" d="M198 283L199 284L198 283z"/>
<path style="fill:#f9e6ea; stroke:none;" d="M207 283L208 284L207 283z"/>
<path style="fill:#faeaf4; stroke:none;" d="M197 284L198 285L197 284z"/>
<path style="fill:#f9e6ea; stroke:none;" d="M206 284L207 285L206 284z"/>
<path style="fill:#faeaf4; stroke:none;" d="M196 285L197 286L196 285z"/>
<path style="fill:#f9e6ea; stroke:none;" d="M205 285L206 286L205 285z"/>
<path style="fill:#faeaf4; stroke:none;" d="M146 286L147 287L146 286M195 286L170 312C177.145 306.967 192.926 294.557 195 286z"/>
<path style="fill:#f9e6ea; stroke:none;" d="M204 286L205 287L204 286z"/>
<path style="fill:#faeaf4; stroke:none;" d="M147 287L148 288L147 287z"/>
<path style="fill:#fdf3f3; stroke:none;" d="M152 287L153 288L152 287z"/>
<path style="fill:#f9e6ea; stroke:none;" d="M195 287C169.489 312.511 143.519 337.481 118 363L99 381.999C96.9302 384.058 93.6867 388.515 90.4244 388.515C87.56 388.515 84.8207 384.798 82.9992 382.996C77.3028 377.362 71.6656 371.666 66 366C45.2349 345.235 23.9494 318.87 0 302C0.0587536 318.635 25.8323 335.832 37 347C49.2195 359.219 61.1706 371.806 73.9606 383.424C78.5679 387.61 82.3324 394.096 89 395.117C100.287 396.847 112.957 378.043 120 371C146.501 344.499 173.52 318.48 200 292L195 287M203 287L204 288L203 287z"/>
<path style="fill:#fdf3f3; stroke:none;" d="M148 288L148 289L151 289L148 288z"/>
<path style="fill:#f9e6ea; stroke:none;" d="M202 288L203 289L202 288M201 289L202 290L201 289M200 290L201 291L200 290z"/>
<path style="fill:#faeaf4; stroke:none;" d="M0 301L1 302L0 301M1 302L2 303L1 302M2 303L3 304L2 303M187 303L188 304L187 303M3 304L4 305L3 304M186 304L187 305L186 304M4 305L5 306L4 305M185 305L186 306L185 305M5 306L6 307L5 306M184 306L185 307L184 306M6 307L7 308L6 307M183 307L184 308L183 307M7 308L8 309L7 308M182 308L183 309L182 308M8 309L9 310L8 309M181 309L182 310L181 309z"/>
<path style="fill:#fdf3f3; stroke:none;" d="M0 310L36 347L73 383L37 346L0 310z"/>
<path style="fill:#faeaf4; stroke:none;" d="M9 310L10 311L9 310M180 310L181 311L180 310z"/>
<path style="fill:#ffffff; stroke:none;" d="M0 311L0 396L87 396L87 395C54.1995 371.895 32.6803 334.02 0 311z"/>
<path style="fill:#faeaf4; stroke:none;" d="M10 311L11 312L10 311M179 311L180 312L179 311M11 312L12 313L11 312M178 312L179 313L178 312M12 313L13 314L12 313M177 313L178 314L177 313M13 314L14 315L13 314z"/>
<path style="fill:#fdf3f3; stroke:none;" d="M29 314L28 316L29 314z"/>
<path style="fill:#faeaf4; stroke:none;" d="M30 314L31 315L30 314z"/>
<path style="fill:#f9e6ea; stroke:none;" d="M31.1744 315.06C27.4695 315.737 29.1866 321.337 32.6975 320.248C35.7456 319.304 34.1631 314.514 31.1744 315.06z"/>
<path style="fill:#fdf3f3; stroke:none;" d="M33 314L34 315L33 314z"/>
<path style="fill:#faeaf4; stroke:none;" d="M176 314L177 315L176 314M14 315L15 316L14 315M34 315L35 316L34 315M166 315L167 316L166 315M175 315L176 316L175 315M15 316L16 317L15 316M28 316L29 317L28 316z"/>
<path style="fill:#fdf3f3; stroke:none;" d="M35 316L35 319L36 319L35 316z"/>
<path style="fill:#faeaf4; stroke:none;" d="M165 316L166 317L165 316M174 316L175 317L174 316M16 317L17 318L16 317M164 317L165 318L164 317M173 317L174 318L173 317M17 318L18 319L17 318z"/>
<path style="fill:#fdf3f3; stroke:none;" d="M110 318L110 319L113 319L110 318z"/>
<path style="fill:#faeaf4; stroke:none;" d="M163 318L164 319L163 318M172 318L173 319L172 318M18 319L19 320L18 319z"/>
<path style="fill:#fdf3f3; stroke:none;" d="M28 319L29 320L28 319z"/>
<path style="fill:#faeaf4; stroke:none;" d="M109 319L110 320L109 319z"/>
<path style="fill:#f9e6ea; stroke:none;" d="M110.458 320.083C107.419 322.037 110.455 326.656 113.407 324.713C116.219 322.863 113.452 318.158 110.458 320.083z"/>
<path style="fill:#fdf3f3; stroke:none;" d="M114 319L115 320L114 319z"/>
<path style="fill:#faeaf4; stroke:none;" d="M162 319L163 320L162 319M171 319L172 320L171 319M19 320L20 321L19 320M29 320L30 321L29 320z"/>
<path style="fill:#fdf3f3; stroke:none;" d="M34 320L35 321L34 320M108 320L109 321L108 320M115.333 320.667L115.667 321.333L115.333 320.667z"/>
<path style="fill:#faeaf4; stroke:none;" d="M161 320L162 321L161 320M170 320L171 321L170 320M20 321L21 322L20 321z"/>
<path style="fill:#fdf3f3; stroke:none;" d="M30 321L30 322L33 322L30 321z"/>
<path style="fill:#faeaf4; stroke:none;" d="M108 321L109 322L108 321M169 321L170 322L169 321M21 322L22 323L21 322M115 322L116 323L115 322M168 322L169 323L168 322M22 323L23 324L22 323M108 323L109 324L108 323z"/>
<path style="fill:#fdf3f3; stroke:none;" d="M115 323L116 324L115 323z"/>
<path style="fill:#faeaf4; stroke:none;" d="M167 323L168 324L167 323M23 324L24 325L23 324M166 324L167 325L166 324M24 325L25 326L24 325M110 325L111 326L110 325M113 325L114 326L113 325M165 325L166 326L165 325M25 326L26 327L25 326M164 326L165 327L164 326M26 327L27 328L26 327M163 327L164 328L163 327M27 328L28 329L27 328M162 328L163 329L162 328M28 329L29 330L28 329M161 329L162 330L161 329M29 330L30 331L29 330M160 330L161 331L160 330M30 331L31 332L30 331z"/>
<path style="fill:#fdf3f3; stroke:none;" d="M159 331L160 332L159 331z"/>
<path style="fill:#faeaf4; stroke:none;" d="M31 332L32 333L31 332z"/>
<path style="fill:#fdf3f3; stroke:none;" d="M158 332L159 333L158 332z"/>
<path style="fill:#faeaf4; stroke:none;" d="M32 333L33 334L32 333z"/>
<path style="fill:#fdf3f3; stroke:none;" d="M157 333L158 334L157 333z"/>
<path style="fill:#faeaf4; stroke:none;" d="M33 334L34 335L33 334z"/>
<path style="fill:#fdf3f3; stroke:none;" d="M156 334L157 335L156 334z"/>
<path style="fill:#faeaf4; stroke:none;" d="M34 335L35 336L34 335z"/>
<path style="fill:#fdf3f3; stroke:none;" d="M155 335L156 336L155 335z"/>
<path style="fill:#faeaf4; stroke:none;" d="M35 336L36 337L35 336z"/>
<path style="fill:#fdf3f3; stroke:none;" d="M154 336L155 337L154 336z"/>
<path style="fill:#faeaf4; stroke:none;" d="M36 337L37 338L36 337z"/>
<path style="fill:#fdf3f3; stroke:none;" d="M153 337L154 338L153 337z"/>
<path style="fill:#faeaf4; stroke:none;" d="M37 338L38 339L37 338z"/>
<path style="fill:#fdf3f3; stroke:none;" d="M152 338L153 339L152 338z"/>
<path style="fill:#faeaf4; stroke:none;" d="M38 339L39 340L38 339z"/>
<path style="fill:#fdf3f3; stroke:none;" d="M151 339L152 340L151 339z"/>
<path style="fill:#faeaf4; stroke:none;" d="M39 340L40 341L39 340z"/>
<path style="fill:#fdf3f3; stroke:none;" d="M150 340L151 341L150 340z"/>
<path style="fill:#faeaf4; stroke:none;" d="M40 341L41 342L40 341z"/>
<path style="fill:#fdf3f3; stroke:none;" d="M149 341L150 342L149 341z"/>
<path style="fill:#faeaf4; stroke:none;" d="M41 342L42 343L41 342z"/>
<path style="fill:#fdf3f3; stroke:none;" d="M148 342L149 343L148 342z"/>
<path style="fill:#faeaf4; stroke:none;" d="M42 343L43 344L42 343z"/>
<path style="fill:#fdf3f3; stroke:none;" d="M147 343L148 344L147 343z"/>
<path style="fill:#faeaf4; stroke:none;" d="M43 344L44 345L43 344z"/>
<path style="fill:#fdf3f3; stroke:none;" d="M44 344L45 345L44 344M146 344L147 345L146 344M45 345L46 346L45 345M145 345L146 346L145 345M46 346L47 347L46 346M144 346L145 347L144 346M47 347L48 348L47 347M143 347L144 348L143 347M48 348L49 349L48 348M142 348L143 349L142 348M49 349L50 350L49 349M141 349L142 350L141 349M50 350L51 351L50 350M140 350L141 351L140 350M51 351L52 352L51 351M139 351L140 352L139 351M52 352L53 353L52 352M138 352L139 353L138 352M53 353L54 354L53 353M137 353L138 354L137 353M54 354L55 355L54 354M136 354L137 355L136 354M55 355L56 356L55 355M135 355L136 356L135 355M56 356L57 357L56 356M72 356L73 357L72 356z"/>
<path style="fill:#f9e6ea; stroke:none;" d="M73.2639 357.255C70.6023 358.543 71.5682 363.259 74.74 362.249C77.8833 361.249 76.4672 355.706 73.2639 357.255z"/>
<path style="fill:#fdf3f3; stroke:none;" d="M75 356L76 357L75 356M134 356L135 357L134 356M57 357L58 358L57 357z"/>
<path style="fill:#faeaf4; stroke:none;" d="M71 357L72 358L71 357z"/>
<path style="fill:#fdf3f3; stroke:none;" d="M133 357L134 358L133 357M58 358L59 359L58 358M70 358L70 362L71 362L70 358M77 358L78 359L77 358M132 358L133 359L132 358M59 359L60 360L59 359z"/>
<path style="fill:#faeaf4; stroke:none;" d="M77.3333 359.667L77.6667 360.333L77.3333 359.667z"/>
<path style="fill:#fdf3f3; stroke:none;" d="M121 359L122 360L121 359M131 359L132 360L131 359M60 360L61 361L60 360M120 360L121 361L120 360M130 360L131 361L130 360M61 361L62 362L61 361M77 361L78 362L77 361M119 361L120 362L119 361M129 361L130 362L129 361M62 362L63 363L62 362M71 362L72 363L71 362z"/>
<path style="fill:#faeaf4; stroke:none;" d="M76 362L77 363L76 362z"/>
<path style="fill:#fdf3f3; stroke:none;" d="M118 362L119 363L118 362M128 362L129 363L128 362M63 363L64 364L63 363M73 363L73 364L76 364L73 363M117 363L118 364L117 363M127 363L128 364L127 363M64 364L65 365L64 364M116 364L117 365L116 364M126 364L127 365L126 364M65 365L66 366L65 365M115 365L116 366L115 365M125 365L126 366L125 365M66 366L67 367L66 366M114 366L115 367L114 366M124 366L125 367L124 366M67 367L68 368L67 367M113 367L114 368L113 367M123 367L124 368L123 367M68 368L69 369L68 368M112 368L113 369L112 368M122 368L123 369L122 368M69 369L70 370L69 369M111 369L112 370L111 369M121 369L122 370L121 369M70 370L71 371L70 370M110 370L111 371L110 370M120 370L121 371L120 370M71 371L72 372L71 371M109 371L110 372L109 371M119 371L120 372L119 371M72 372L73 373L72 372M108 372L109 373L108 372M118 372L119 373L118 372M73 373L74 374L73 373M107 373L108 374L107 373M117 373L118 374L117 373M74 374L75 375L74 374M106 374L107 375L106 374M116 374L117 375L116 374M75 375L76 376L75 375M105 375L106 376L105 375M115 375L116 376L115 375M76 376L77 377L76 376M104 376L105 377L104 376M114 376L115 377L114 376M77 377L78 378L77 377M103 377L104 378L103 377M113 377L114 378L113 377M78 378L79 379L78 378M102 378L103 379L102 378M112 378L113 379L112 378M79 379L80 380L79 379M101 379L102 380L101 379M111 379L112 380L111 379M80 380L81 381L80 380M100 380L101 381L100 380M110 380L111 381L110 380M81 381L82 382L81 381M99 381L100 382L99 381M109 381L110 382L109 381M82 382L83 383L82 382M98 382L99 383L98 382M108 382L109 383L108 382z"/>
<path style="fill:#faeaf4; stroke:none;" d="M74 383L75 384L74 383z"/>
<path style="fill:#fdf3f3; stroke:none;" d="M83 383L84 384L83 383M97 383L98 384L97 383M107 383L108 384L107 383z"/>
<path style="fill:#faeaf4; stroke:none;" d="M75 384L76 385L75 384z"/>
<path style="fill:#fdf3f3; stroke:none;" d="M84 384L85 385L84 384M96 384L97 385L96 384M106 384L107 385L106 384z"/>
<path style="fill:#faeaf4; stroke:none;" d="M76 385L77 386L76 385z"/>
<path style="fill:#fdf3f3; stroke:none;" d="M85 385L86 386L85 385M95 385L96 386L95 385M105 385L106 386L105 385z"/>
<path style="fill:#faeaf4; stroke:none;" d="M77 386L78 387L77 386z"/>
<path style="fill:#fdf3f3; stroke:none;" d="M86 386L87 387L86 386M94 386L95 387L94 386M104 386L105 387L104 386M87 387L88 388L87 387M93 387L94 388L93 387M103 387L104 388L103 387M88 388L89 389L88 388M92 388L93 389L92 388M102 388L103 389L102 388z"/>
<path style="fill:#faeaf4; stroke:none;" d="M90 389L91 390L90 389z"/>
<path style="fill:#fdf3f3; stroke:none;" d="M101 389L102 390L101 389M100 390L101 391L100 390M99 391L100 392L99 391M98 392L99 393L98 392z"/>
<path style="fill:#faeaf4; stroke:none;" d="M84 393L85 394L84 393z"/>
<path style="fill:#fdf3f3; stroke:none;" d="M85 394L86 395L85 394M95 394L96 395L95 394M87 395L88 396L87 395z"/>
<path style="fill:#faeaf4; stroke:none;" d="M88.6667 395.333L89.3333 395.667L88.6667 395.333M91.6667 395.333L92.3333 395.667L91.6667 395.333z"/>
<path style="fill:#fdf3f3; stroke:none;" d="M93 395L94 396L93 395z"/>
</svg>
