<?xml version="1.0" standalone="yes"?>
<svg xmlns="http://www.w3.org/2000/svg" width="50" height="45">
<path style="fill:#010101; stroke:none;" d="M0 0L0 45L32 45L32 0L0 0z"/>
<path style="fill:#fefefe; stroke:none;" d="M32 0L32 45L50 45L50 0L32 0z"/>
<path style="fill:#323232; stroke:none;" d="M5 5L6 6L5 5z"/>
<path style="fill:#fefefe; stroke:none;" d="M20 23L20 24L5 40C11.7014 41.4756 29.2229 26.9349 24.6235 20C22.6923 17.0882 10.5666 3.12177 6.66204 6.08642C2.31744 9.38519 17.4788 21.224 20 23z"/>
<path style="fill:#323232; stroke:none;" d="M10 5L11 6L10 5M11 6L12 7L11 6M12 7L13 8L12 7M13 8L14 9L13 8z"/>
<path style="fill:#5d5d5d; stroke:none;" d="M5 9L6 10L5 9z"/>
<path style="fill:#323232; stroke:none;" d="M14 9L15 10L14 9M6 10L7 11L6 10M15 10L17 12L15 10M7 11L8 12L7 11z"/>
<path style="fill:#939393; stroke:none;" d="M15 11L16 12L15 11z"/>
<path style="fill:#323232; stroke:none;" d="M8 12L9 13L8 12M17 12L18 13L17 12M9 13L10 14L9 13M18 13L19 14L18 13M10 14L11 15L10 14M11 15L12 16L11 15M12 16L13 17L12 16M21 16L22 17L21 16M13 17L14 18L13 17M22 17L23 18L22 17M14 18L15 19L14 18M23 18L24 19L23 18M15 19L16 20L15 19M16 20L17 21L16 20M17 21L18 22L17 21M26 21L27 22L26 21M18 22L19 23L18 22M27 22L28 23L27 22z"/>
<path style="fill:#939393; stroke:none;" d="M19 23L20 24L19 23M27 23L28 24L27 23M18 24L19 25L18 24M26 24L27 25L26 24M17 25L18 26L17 25M25 25L26 26L25 25M16 26L17 27L16 26M24 26L25 27L24 26M15 27L16 28L15 27M23 27L24 28L23 27M14 28L15 29L14 28M22 28L23 29L22 28M13 29L14 30L13 29M21 29L22 30L21 29M12 30L13 31L12 30M20 30L21 31L20 30M11 31L12 32L11 31M19 31L20 32L19 31M10 32L11 33L10 32M18 32L19 33L18 32M9 33L10 34L9 33M17 33L18 34L17 33M8 34L9 35L8 34M16 34L17 35L16 34M7 35L8 36L7 35M15 35L16 36L15 35M6 36L7 37L6 36M14 36L15 37L14 36M5 37L6 38L5 37M13 37L14 38L13 37M12 38L13 39L12 38M11 39L12 40L11 39M5 40L6 41L5 40M10 40L11 41L10 40M6 41L6 42L10 42L6 41z"/>
</svg>
