<?xml version="1.0" standalone="yes"?>
<svg xmlns="http://www.w3.org/2000/svg" width="50" height="45">
<path style="fill:#fefefe; stroke:none;" d="M0 0L0 45L18 45L18 0L0 0z"/>
<path style="fill:#010101; stroke:none;" d="M18 0L18 45L50 45L50 0L18 0z"/>
<path style="fill:#323232; stroke:none;" d="M39 5L31 14L39 5z"/>
<path style="fill:#fefefe; stroke:none;" d="M45 40L30 24C32.7088 21.2912 46.3073 10.8626 43.8241 6.62269C41.0889 1.95263 26.0676 18.2347 24.7515 21C21.553 27.7205 38.8395 41.3565 45 40z"/>
<path style="fill:#323232; stroke:none;" d="M44 5L45 6L44 5z"/>
<path style="fill:#5d5d5d; stroke:none;" d="M44 9L45 10L44 9z"/>
<path style="fill:#323232; stroke:none;" d="M43 10L44 11L43 10z"/>
<path style="fill:#939393; stroke:none;" d="M34 11L35 12L34 11z"/>
<path style="fill:#323232; stroke:none;" d="M42 11L43 12L42 11M41 12L42 13L41 12M40 13L41 14L40 13M39 14L40 15L39 14M38 15L39 16L38 15M28 16L29 17L28 16M37 16L38 17L37 16M27 17L28 18L27 17M36 17L37 18L36 17M26 18L27 19L26 18M35 18L36 19L35 18M34 19L35 20L34 19M33 20L34 21L33 20M23 21L24 22L23 21M32 21L33 22L32 21M22 22L23 23L22 22M31 22L32 23L31 22z"/>
<path style="fill:#939393; stroke:none;" d="M22 23L23 24L22 23M30 23L31 24L30 23M23 24L24 25L23 24M31 24L32 25L31 24M24 25L25 26L24 25M32 25L33 26L32 25M25 26L26 27L25 26M33 26L34 27L33 26M26 27L27 28L26 27M34 27L35 28L34 27M27 28L28 29L27 28M35 28L36 29L35 28M28 29L29 30L28 29M36 29L37 30L36 29M29 30L30 31L29 30M37 30L38 31L37 30M30 31L31 32L30 31M38 31L39 32L38 31M31 32L32 33L31 32M39 32L40 33L39 32M32 33L33 34L32 33M40 33L41 34L40 33M33 34L34 35L33 34M41 34L42 35L41 34M34 35L35 36L34 35M42 35L43 36L42 35M35 36L36 37L35 36M43 36L44 37L43 36M36 37L37 38L36 37M44 37L45 38L44 37M37 38L38 39L37 38M38 39L39 40L38 39M39 40L40 41L39 40M44 40L45 41L44 40M40 41L40 42L44 42L40 41z"/>
</svg>
