<?xml version="1.0" standalone="yes"?>
<svg xmlns="http://www.w3.org/2000/svg" width="94" height="68">
<path style="fill:#f0eef8; stroke:none;" d="M0 0L0 63L9 61L9 0L0 0z"/>
<path style="fill:#6eb8e5; stroke:none;" d="M9 0L8 14L9 14L9 10L23 10L23 0L9 0z"/>
<path style="fill:#f0eef8; stroke:none;" d="M23 0L23 5L35 5L35 60L43 58L43 57L37 56L37 55L44 54L44 28L37 27L37 25L45 25L45 24L37 23C38.8062 19.7507 40.3829 19.4013 44 20L37 18L37 15L44 15L47 0L23 0z"/>
<path style="fill:#f5b948; stroke:none;" d="M46 61L47 61L47 1L59 1C55.9381 -0.284821 48.45 -1.43482 46.6034 2.3179C44.406 6.7835 46 15.0986 46 20L46 61z"/>
<path style="fill:#e33c33; stroke:none;" d="M47 1L47 62L61 62L61 0L47 1z"/>
<path style="fill:#f0eef8; stroke:none;" d="M61 0L61 61L72 61L63 5L75 3C79.7824 20.0182 84.6336 41.3432 85 59L75 60L75 61L94 63L94 0L61 0z"/>
<path style="fill:#6eb8e5; stroke:none;" d="M63 5C63.0393 19.2548 65.2049 22.7526 79 21L77 10L64 13L77 9L75 3L63 5z"/>
<path style="fill:#f5b948; stroke:none;" d="M23 5L23 62L35 62L35 5L23 5z"/>
<path style="fill:#6eb8e5; stroke:none;" d="M44 9L44 17L37 17L37 18L44 18L44 22L37 22L37 23L45 24L45 25L38 24L38 25L44 25L44 27L38 27L38 28L44 28L44 54C40.9224 54.0504 38.4143 53.7035 38 57L39 57L43 55L43 58L35 62L47 62L46 9L44 9z"/>
<path style="fill:#505177; stroke:none;" d="M64 13L77 10C72.9407 8.41558 66.5769 9.34898 64 13M9 10L9 15C14.4613 15 21.8669 16.7898 23 10L9 10z"/>
<path style="fill:#6eb8e5; stroke:none;" d="M22 14L9 15L8 62L23 62L23 52L9 52L9 48L23 48L22 14z"/>
<path style="fill:#505177; stroke:none;" d="M37 15L37 17L44 17L44 15L37 15z"/>
<path style="fill:#6eb8e5; stroke:none;" d="M38 19L38 20L43 20L38 19z"/>
<path style="fill:#505177; stroke:none;" d="M37 20L37 22L44 22L44 20L37 20M66 25L79 23L79 21L66 25z"/>
<path style="fill:#6eb8e5; stroke:none;" d="M69 42L82 39C81.2581 35.0624 81.4561 27.7372 78.8248 24.6181C76.8064 22.2254 67.8811 23.2635 66.7731 26.3179C65.2637 30.4793 68.1811 37.7774 69 42z"/>
<path style="fill:#505177; stroke:none;" d="M37 25L37 27L44 27L44 25L37 25M69 42L69 43C73.5613 42.9059 79.3478 43.1066 82 39L69 42z"/>
<path style="fill:#6eb8e5; stroke:none;" d="M69 43L71 54C80.0659 51.7665 85.424 51.8314 82 41L69 43z"/>
<path style="fill:#505177; stroke:none;" d="M9 48L9 52L23 52L23 48L9 48M83 51L71 55C73.8846 55.3855 84.6511 55.38 83 51z"/>
<path style="fill:#6eb8e5; stroke:none;" d="M84 52L71 55L72 62L79 62L79 61L75 61L75 60L85 59L84 52z"/>
<path style="fill:#505177; stroke:none;" d="M38 55L38 56L43 57L43 55L38 55z"/>
<path style="fill:#6eb8e5; stroke:none;" d="M2 61L2 62L7 62L2 61z"/>
<path style="fill:#505177; stroke:none;" d="M1 62C2.36443 70.1759 17.5587 67 24 67L75 67C78.8954 67 89.4661 68.8344 92.1682 65.4414C95.1768 61.6634 86.63 61.539 85 61.3927C76.7323 60.651 67.3379 61.3912 59 61.804C51.0156 62.1993 42.9938 62 35 62C23.6708 62 12.3063 61.6082 1 62z"/>
<path style="fill:#6eb8e5; stroke:none;" d="M62 61L62 62L71 62L62 61M85 61L85 62L90 62L85 61M91 61L92 62L91 61M0 63C2.34169 70.7138 14.4733 68 21 68L74 68C80.3469 68 89.2657 69.8345 94 65C86.2977 68.2637 77.2301 67 69 67L23 67C15.335 67 5.60186 69.1147 0 63M93 63L94 64L93 63z"/>
<path style="fill:#f0eef8; stroke:none;" d="M0 66L0 68L2 68L0 66M93 66L92 68L94 68L93 66z"/>
</svg>
