<?xml version="1.0" standalone="yes"?>
<svg xmlns="http://www.w3.org/2000/svg" width="74" height="74">
<path style="fill:#fdfbfa; stroke:none;" d="M0 0L0 74L18 74L18 73C10.2976 66.2259 13 53.3969 13 44L22 44C22.7842 33.6059 34.443 33.1448 34 44L41 44L41 51L42 51L43 35C51.8641 33.6197 52.3667 23.7141 43 23L43 14C50.0104 14 63.9532 11.3453 69.7716 15.7423C74.219 19.1032 73 26.1307 73 31C73 44.4544 76.3325 62.3432 69 74L74 74L74 0L28 0L39.1489 13.0401L37 29L28 32C26.6708 20.198 14.3914 24.9094 17 36L8 38C6.94841 30.8794 -0.373244 19.9817 1.69676 13.0154C3.96149 5.39383 19.4171 3.14198 26 1L0 0z"/>
<path style="fill:#f7a936; stroke:none;" d="M8 38L17 36C15.2128 25.8798 25.676 20.6114 28 32L37 29L39.2423 12.108L28 0C21.3754 1.80824 4.20554 4.9517 1.61806 12.044C-0.960855 19.1128 6.37512 30.9764 8 38z"/>
<path style="fill:#cc6c70; stroke:none;" d="M26 3L27 4L26 3M23.6667 4.33334L24.3333 4.66666L23.6667 4.33334M17 6L17 7L21 6L17 6M14 7L15 8L14 7M11.6667 8.33334L12.3333 8.66666L11.6667 8.33334M4.66667 9.33334L5.33333 9.66666L4.66667 9.33334M8.66667 9.33334L9.33333 9.66666L8.66667 9.33334M2 11L2 14L3 14L2 11M6 11L4 15L5 15L6 11z"/>
<path style="fill:#67bbef; stroke:none;" d="M43 14L43 23C51.7933 24.3723 50.8885 32.7641 43 35L43 43L52 43C52.2693 54.1108 63.6435 53.9774 64 43L73 43C73 36.3892 75.7405 21.7033 71.2577 16.4336C66.609 10.9689 49.6203 14 43 14z"/>
<path style="fill:#cc6c70; stroke:none;" d="M3 16L4 17L3 16M3 18L6 26L7 26L3 18M7.33333 28.6667L7.66667 29.3333L7.33333 28.6667M8 31L9 32L8 31M9 33L9 36L10 36L9 33z"/>
<path style="fill:#f7a936; stroke:none;" d="M22 44L13 44C13 51.0632 10.1867 65.9984 15.5139 71.4275C20.8386 76.854 35.9481 74 43 74L43 65C32.6068 63.8392 32.6068 53.1608 43 52L43 44L42 44L42 51L41 51L41 44L34 44C35.0833 32.5964 22.3552 33.0614 22 44z"/>
<path style="fill:#cc6c70; stroke:none;" d="M43 43L43 44L52 44L43 43M64 43L64 44L73 44L64 43z"/>
<path style="fill:#df3e27; stroke:none;" d="M43 44L43 53C31.9678 51.601 32.6626 66.278 43 64L44 74C51.2775 72.2674 63.3951 75.8774 69.6049 71.821C74.9239 68.3465 73 50.0119 73 44L64 44C64.3712 54.1913 51.6251 54.3173 52 44L43 44z"/>
<path style="fill:#cc6c70; stroke:none;" d="M51 45L51 48L52 48L51 45M64 45L64 48L65 48L64 45M52 49L53 50L52 49M63 49L64 50L63 49M62 50L63 51L62 50M54 51L55 52L54 51M61 51L62 52L61 51M38 52L39 53L38 52M41.6667 52.3333L42.3333 52.6667L41.6667 52.3333M55 52L55 53L60 53L55 52M36 53L37 54L36 53M35 54L36 55L35 54M72 56L72 66L73 66L72 56M35 62L36 63L35 62M36 63L37 64L36 63M42 64L43 65L42 64M72 68L73 69L72 68z"/>
<path style="fill:#f7a936; stroke:none;" d="M72 69L73 70L72 69z"/>
<path style="fill:#cc6c70; stroke:none;" d="M71 70L72 71L71 70M69 72L70 73L69 72M43 73L44 74L43 73M45 73L45 74L68 74L45 73z"/>
<path style="fill:#f7a936; stroke:none;" d="M68 73L69 74L68 73z"/>
</svg>
